<?xml version="1.0" encoding="UTF-8" standalone="no"?>
<svg width="280px" height="46px" viewBox="0 0 280 46" version="1.1" xmlns="http://www.w3.org/2000/svg" xmlns:xlink="http://www.w3.org/1999/xlink">
    <!-- Generator: Sketch 46.2 (44496) - http://www.bohemiancoding.com/sketch -->
    <title>2</title>
    <desc>Created with Sketch.</desc>
    <defs></defs>
    <g id="Page-1" stroke="none" stroke-width="1" fill="none" fill-rule="evenodd">
        <g id="2" fill="#006E56">
            <path d="M14,7 L23,7 L33,30.0600586 L43,7 L52,7 L52,9 C50,9 49,10 49,12 C49,13.2455444 49,32.0164185 49,34 C49,36 50.3333333,37 53,37 L53,39 L42,39 L42,37 C44.6666667,37 46,36 46,34 C46,31.9687093 46,24.6362305 46,12.0025635 L35,37 L33,37 L31,37 L20,12 C20,25.3280029 20,32.6613363 20,34 C20,36 21.3333333,37 24,37 L24,39 L13,39 L13,37 C15.6666667,37.0000449 17,36.0000449 17,34 C17,29.2953491 17,13.0036621 17,12 C17,10 16,9 14,9 L14,7 Z" id="Rectangle-3"></path>
            <rect id="Rectangle-4" x="92" y="20" width="8" height="8"></rect>
            <rect id="Rectangle-4" x="74" y="20" width="8" height="8"></rect>
            <rect id="Rectangle-4" x="56" y="20" width="8" height="8"></rect>
            <rect id="Rectangle-4" x="2" y="20" width="8" height="8"></rect>
            <text id="Multi-Honeypots-Plat" font-family="PingFangSC-Semibold, PingFang SC" font-size="12" font-weight="500" line-spacing="50">
                <tspan x="124" y="13">Multi-Honeypots Platform</tspan>
            </text>
        </g>
    </g>
</svg>